HIERARCHY
ROOT Hips
{
	OFFSET -0.001795 -0.223333 0.028219
	CHANNELS 6 Xposition Yposition Zposition Zrotation Yrotation Xrotation 
	JOINT LeftUpLeg
	{
		OFFSET 0.069520 -0.091406 -0.006815
		CHANNELS 3 Zrotation Yrotation Xrotation
		JOINT LeftLeg
		{
			OFFSET 0.034277 -0.375199 -0.004496
			CHANNELS 3 Zrotation Yrotation Xrotation
			JOINT LeftFoot
			{
				OFFSET -0.013596 -0.397961 -0.043693
				CHANNELS 3 Zrotation Yrotation Xrotation
				JOINT LeftToe
				{
					OFFSET 0.026358 -0.055791 0.119288
					CHANNELS 3 Zrotation Yrotation Xrotation
					End Site
					{
						OFFSET 0.000000 0.000000 0.000000
					}
				}
			}
		}
	}
	JOINT RightUpLeg
	{
		OFFSET -0.067670 -0.090522 -0.004320
		CHANNELS 3 Zrotation Yrotation Xrotation
		JOINT RightLeg
		{
			OFFSET -0.038290 -0.382569 -0.008850
			CHANNELS 3 Zrotation Yrotation Xrotation
			JOINT RightFoot
			{
				OFFSET 0.015774 -0.398415 -0.042312
				CHANNELS 3 Zrotation Yrotation Xrotation
				JOINT RightToe
				{
					OFFSET -0.025372 -0.048144 0.123348
					CHANNELS 3 Zrotation Yrotation Xrotation
					End Site
					{
						OFFSET 0.000000 0.000000 0.000000
					}
				}
			}
		}
	}
	JOINT Spine
	{
		OFFSET -0.002533 0.108963 -0.026696
		CHANNELS 3 Zrotation Yrotation Xrotation
		JOINT Spine1
		{
			OFFSET 0.005487 0.135180 0.001092
			CHANNELS 3 Zrotation Yrotation Xrotation
			JOINT Spine2
			{
				OFFSET 0.001457 0.052922 0.025425
				CHANNELS 3 Zrotation Yrotation Xrotation
				JOINT Neck
				{
					OFFSET -0.002778 0.213870 -0.042857
					CHANNELS 3 Zrotation Yrotation Xrotation
					JOINT Head
					{
						OFFSET 0.005152 0.064970 0.051349
						CHANNELS 3 Zrotation Yrotation Xrotation
						End Site
						{
							OFFSET 0.000000 0.000000 0.000000
						}
					}
				}
				JOINT LeftShoulder
				{
					OFFSET 0.078845 0.121749 -0.034090
					CHANNELS 3 Zrotation Yrotation Xrotation
					JOINT LeftArm
					{
						OFFSET 0.090977 0.030469 -0.008868
						CHANNELS 3 Zrotation Yrotation Xrotation
						JOINT LeftForeArm
						{
							OFFSET 0.259612 -0.012772 -0.027456
							CHANNELS 3 Zrotation Yrotation Xrotation
							JOINT LeftHand
							{
								OFFSET 0.249234 0.008986 -0.001171
								CHANNELS 3 Zrotation Yrotation Xrotation
								End Site
								{
									OFFSET 0.000000 0.000000 0.000000
								}
							}
						}
					}
				}
				JOINT RightShoulder
				{
					OFFSET -0.081759 0.118833 -0.038615
					CHANNELS 3 Zrotation Yrotation Xrotation
					JOINT RightArm
					{
						OFFSET -0.096012 0.032551 -0.009143
						CHANNELS 3 Zrotation Yrotation Xrotation
						JOINT RightForeArm
						{
							OFFSET -0.253742 -0.013329 -0.021401
							CHANNELS 3 Zrotation Yrotation Xrotation
							JOINT RightHand
							{
								OFFSET -0.255298 0.007772 -0.005559
								CHANNELS 3 Zrotation Yrotation Xrotation
								End Site
								{
									OFFSET 0.000000 0.000000 0.000000
								}
							}
						}
					}
				}
			}
		}
	}
}
MOTION
Frames: 11
Frame Time: 0.050000
-0.039078 0.944388 1.033277 1.290749 7.643375 9.166671 -4.834050 -0.642412 -6.560642 2.132919 0.030631 -4.467337 5.807659 13.714569 7.507683 0.000000 0.000000 0.000000 -1.161383 0.945920 -10.378319 -1.353391 -0.107974 -5.033253 9.279565 14.853442 11.404938 0.000000 0.000000 0.000000 8.106898 -0.638416 2.254920 0.853839 -0.610635 2.977550 -5.351905 0.870784 2.412353 12.875193 -4.668828 -21.781331 0.000000 0.000000 0.000000 -24.993055 -33.423141 16.509781 -12.165843 -23.853188 0.278489 24.847075 -42.703753 -8.224419 0.000000 0.000000 0.000000 26.155702 19.828040 12.495013 25.383344 16.664351 -0.009560 -64.238487 74.943003 -45.816372 0.000000 0.000000 0.000000 
-0.038036 0.944620 1.032557 1.578312 7.528960 9.580158 -5.105568 -0.727299 -7.172096 2.117172 0.026477 -4.357497 5.748276 13.719393 7.941319 0.000000 0.000000 0.000000 -1.626925 0.936114 -10.577322 -1.335900 -0.120672 -5.225928 9.558346 15.035667 11.957105 0.000000 0.000000 0.000000 8.440013 -0.646351 2.001712 0.687186 -0.556171 3.443907 -5.146507 1.937159 2.012376 13.717824 -4.897866 -22.295662 0.000000 0.000000 0.000000 -26.520991 -32.880623 16.072150 -13.448791 -22.332977 0.421330 25.437500 -45.820101 -9.204742 0.000000 0.000000 0.000000 25.512888 21.005219 13.503803 22.642128 18.148546 0.028399 -57.155056 67.153832 -34.567436 0.000000 0.000000 0.000000 
-0.036859 0.944640 1.032243 1.883594 7.371631 9.737356 -5.514658 -0.742699 -7.224617 2.147789 0.048651 -4.860804 5.921882 14.066415 8.269256 0.000000 0.000000 0.000000 -1.801998 0.923563 -10.526557 -1.799168 -0.100177 -5.396146 9.575993 15.138750 11.835430 0.000000 0.000000 0.000000 8.902634 -0.661608 1.810455 0.479303 -0.490432 4.101367 -5.064964 3.079657 1.612954 14.485659 -5.255745 -22.063762 0.000000 0.000000 0.000000 -27.836552 -31.600866 14.950569 -15.675461 -19.871391 0.567572 29.104497 -51.888404 -12.593533 0.000000 0.000000 0.000000 24.745574 21.287835 13.877357 19.715795 19.949225 0.027628 -50.619901 60.173351 -25.944619 0.000000 0.000000 0.000000 
-0.035822 0.944643 1.032131 2.117784 7.743996 9.942439 -5.964819 -0.775400 -7.413598 2.413652 0.046213 -5.071484 5.729804 13.810224 8.420696 0.000000 0.000000 0.000000 -2.251210 0.886681 -10.412585 -1.609309 -0.125176 -5.618565 9.710734 15.122016 12.327296 0.000000 0.000000 0.000000 9.437141 -0.695411 1.693344 0.408887 -0.457403 4.049687 -4.915517 4.210957 2.111237 15.007882 -5.319830 -22.579740 0.000000 0.000000 0.000000 -29.263393 -30.932670 14.134212 -16.904471 -17.885631 0.592365 34.571916 -57.479868 -17.501569 0.000000 0.000000 0.000000 23.808644 21.309445 14.129415 17.210386 20.855669 -0.153579 -47.329558 54.390108 -21.022692 0.000000 0.000000 0.000000 
-0.035115 0.944491 1.032068 2.455625 8.331062 9.807239 -6.446133 -0.734546 -7.078160 2.568738 0.044857 -5.178011 5.545456 13.469992 8.136256 0.000000 0.000000 0.000000 -2.547884 0.842962 -10.120505 -1.561546 -0.105089 -5.251447 9.136342 14.618285 11.458113 0.000000 0.000000 0.000000 9.873510 -0.738910 1.787149 0.347667 -0.441813 4.132906 -4.892732 5.125997 2.199643 15.344518 -5.390444 -22.593004 0.000000 0.000000 0.000000 -29.749622 -30.131478 13.034503 -17.982939 -16.415200 0.633828 40.474801 -62.270075 -23.276868 0.000000 0.000000 0.000000 23.628219 21.004812 14.307443 15.441783 20.640733 -0.374568 -45.653698 50.986545 -18.559800 0.000000 0.000000 0.000000 
-0.034608 0.944243 1.031846 2.747687 9.583933 9.724254 -6.869884 -0.689552 -6.770455 2.600032 0.056370 -5.397145 5.142246 12.878509 8.180374 0.000000 0.000000 0.000000 -2.751317 0.798492 -9.828969 -1.612435 -0.071746 -4.810015 8.827057 14.338156 11.136735 0.000000 0.000000 0.000000 10.264278 -0.752249 1.624147 0.500286 -0.557056 4.321028 -4.992612 5.441746 2.384357 15.260788 -5.310658 -22.380840 0.000000 0.000000 0.000000 -30.064851 -29.807631 12.368457 -18.260078 -16.068518 0.707906 45.582737 -64.371603 -27.876413 0.000000 0.000000 0.000000 23.830275 20.159889 14.156914 14.274068 20.502101 -0.538460 -44.888747 48.924081 -17.244949 0.000000 0.000000 0.000000 
-0.034097 0.944254 1.031336 3.082189 10.418845 9.626786 -7.301920 -0.659503 -6.544446 2.771826 0.041941 -5.231775 4.636628 11.919298 7.551206 0.000000 0.000000 0.000000 -3.178273 0.737709 -9.418226 -1.359578 -0.084654 -4.743532 8.561536 14.351648 10.395995 0.000000 0.000000 0.000000 10.646256 -0.799478 1.741149 0.637069 -0.595416 3.712936 -5.008025 5.749790 2.948584 14.832742 -5.039238 -22.297219 0.000000 0.000000 0.000000 -30.309736 -29.961862 12.157774 -18.345051 -16.799253 0.853339 47.066184 -63.614165 -28.614815 0.000000 0.000000 0.000000 24.033898 19.889512 14.325889 13.711722 20.008066 -0.676390 -45.276953 46.865873 -16.520064 0.000000 0.000000 0.000000 
-0.033407 0.944235 1.030383 3.410507 11.440430 9.321254 -7.677737 -0.610565 -6.193664 2.859421 0.048734 -5.421066 4.318896 11.569207 7.990521 0.000000 0.000000 0.000000 -3.551171 0.672658 -8.937533 -1.361907 -0.068476 -4.517813 8.429188 14.321975 10.161366 0.000000 0.000000 0.000000 10.869779 -0.821141 1.803543 0.960442 -0.784924 3.826740 -5.058303 5.932812 3.075773 14.604907 -4.796674 -22.498721 0.000000 0.000000 0.000000 -30.842659 -30.536425 12.298339 -17.371269 -17.619939 0.929574 46.297798 -62.501383 -27.504434 0.000000 0.000000 0.000000 24.140778 19.429202 14.296974 12.886181 19.710529 -0.782918 -44.656711 44.627418 -15.312571 0.000000 0.000000 0.000000 
-0.032509 0.944234 1.029054 3.655568 12.314021 9.243040 -8.044708 -0.573811 -5.954593 3.019899 0.046992 -5.497358 4.055535 11.090519 7.708763 0.000000 0.000000 0.000000 -3.995454 0.611138 -8.495041 -1.279548 -0.086789 -4.761063 8.324855 14.407139 9.801829 0.000000 0.000000 0.000000 11.128670 -0.859250 1.891426 1.256580 -0.907470 3.361223 -5.027486 5.903525 3.510731 14.444773 -4.580232 -22.895877 0.000000 0.000000 0.000000 -30.397800 -30.997903 12.396489 -17.051381 -18.694330 1.028170 45.641425 -61.866406 -26.836658 0.000000 0.000000 0.000000 23.677790 19.285648 14.225300 11.914197 19.544086 -0.869409 -42.995742 42.212621 -13.681877 0.000000 0.000000 0.000000 
-0.031641 0.944574 1.027554 3.876711 13.154081 9.320816 -8.364791 -0.545071 -5.788772 3.014128 0.065448 -5.853672 3.916903 11.031009 8.098063 0.000000 0.000000 0.000000 -4.261926 0.576721 -8.342101 -1.388672 -0.090635 -5.013637 8.214887 14.170421 9.951885 0.000000 0.000000 0.000000 11.425434 -0.889873 1.854117 1.465184 -1.063442 3.750350 -5.351205 6.024828 3.227157 14.104480 -4.328779 -22.839043 0.000000 0.000000 0.000000 -30.547964 -31.428852 12.435025 -15.820038 -18.882078 0.981254 44.302530 -62.712909 -26.348273 0.000000 0.000000 0.000000 22.833007 19.498672 14.307007 11.115232 19.112654 -0.921655 -41.195555 38.859675 -11.747224 0.000000 0.000000 0.000000 
-0.030832 0.945009 1.026053 3.984603 13.573412 9.350220 -8.451143 -0.514637 -5.622409 3.119062 0.080502 -6.249880 3.790563 10.898142 8.255791 0.000000 0.000000 0.000000 -4.395881 0.553491 -8.135498 -1.264203 -0.123581 -5.420331 7.968186 13.580671 10.180607 0.000000 0.000000 0.000000 11.498145 -0.951700 2.198208 1.619362 -1.156276 3.821861 -5.479721 6.444588 3.153353 14.328784 -4.358150 -22.927766 0.000000 0.000000 0.000000 -30.003215 -31.591026 12.191264 -15.156379 -18.254546 0.889661 44.361634 -65.399513 -27.823423 0.000000 0.000000 0.000000 22.515833 19.290716 14.298995 9.580150 18.586255 -1.021627 -38.224508 36.689115 -10.053718 0.000000 0.000000 0.000000 
